<?xml version="1.0" encoding="utf-8"?>
<!-- Generator: Adobe Illustrator 28.1.0, SVG Export Plug-In . SVG Version: 6.00 Build 0)  -->
<svg version="1.1" id="Layer_1" xmlns="http://www.w3.org/2000/svg" xmlns:xlink="http://www.w3.org/1999/xlink" x="0px" y="0px"
	 viewBox="0 0 56.7 56.7" style="enable-background:new 0 0 56.7 56.7;" xml:space="preserve">
<style type="text/css">
	.st0{fill:#FFFFFF;}
</style>
<g>
	<path class="st0" d="M51.3,15.7c-2.4-4.1-5.6-7.3-9.6-9.6c-4.1-2.4-8.5-3.5-13.3-3.5c-4.8,0-9.2,1.2-13.3,3.5
		c-4.1,2.4-7.3,5.6-9.6,9.6C3.1,19.8,1.9,24.2,1.9,29c0,5.8,1.7,11,5,15.6c3.4,4.6,7.7,7.8,13,9.6c0.6,0.1,1.1,0,1.4-0.2
		c0.3-0.3,0.4-0.6,0.4-1c0-0.1,0-0.7,0-1.9c0-1.2,0-2.2,0-3.1L21,48c-0.5,0.1-1.1,0.1-1.9,0.1c-0.8,0-1.6-0.1-2.4-0.2
		c-0.8-0.1-1.6-0.5-2.3-1c-0.7-0.5-1.2-1.2-1.5-2.1L12.5,44c-0.2-0.5-0.6-1.1-1.1-1.8c-0.5-0.6-1-1.1-1.5-1.3l-0.2-0.2
		c-0.2-0.1-0.3-0.3-0.4-0.4C9.1,40.2,9,40,8.9,39.8c-0.1-0.2,0-0.3,0.2-0.4c0.2-0.1,0.5-0.2,1-0.2l0.7,0.1c0.5,0.1,1,0.4,1.7,0.8
		c0.7,0.5,1.2,1.1,1.7,1.8c0.5,0.9,1.2,1.7,1.9,2.2c0.7,0.5,1.5,0.7,2.3,0.7c0.8,0,1.4-0.1,2-0.2c0.6-0.1,1.1-0.3,1.6-0.5
		c0.2-1.5,0.8-2.7,1.7-3.5c-1.3-0.1-2.5-0.3-3.5-0.6c-1-0.3-2.1-0.7-3.2-1.3c-1.1-0.6-2-1.4-2.8-2.3c-0.7-0.9-1.3-2.1-1.8-3.6
		c-0.5-1.5-0.7-3.2-0.7-5.2c0-2.8,0.9-5.1,2.7-7.1c-0.9-2.1-0.8-4.4,0.2-7c0.7-0.2,1.7-0.1,3,0.5c1.3,0.5,2.3,1,2.9,1.3
		c0.6,0.4,1.1,0.7,1.5,0.9c2.1-0.6,4.3-0.9,6.6-0.9s4.5,0.3,6.6,0.9l1.3-0.8c0.9-0.6,2-1.1,3.2-1.5c1.2-0.5,2.1-0.6,2.8-0.4
		c1,2.6,1.1,4.9,0.3,7c1.8,2,2.7,4.3,2.7,7.1c0,2-0.2,3.7-0.7,5.2c-0.5,1.5-1.1,2.7-1.8,3.6c-0.7,0.9-1.7,1.7-2.8,2.3
		c-1.1,0.6-2.2,1.1-3.2,1.3c-1,0.3-2.2,0.5-3.5,0.6c1.2,1,1.8,2.7,1.8,4.9v7.3c0,0.4,0.1,0.8,0.4,1c0.3,0.3,0.7,0.4,1.4,0.2
		c5.3-1.8,9.7-5,13-9.6c3.4-4.6,5-9.8,5-15.6C54.8,24.2,53.6,19.8,51.3,15.7z"/>
</g>
</svg>
