<?xml version="1.0" encoding="utf-8"?>
<!-- Generator: Adobe Illustrator 28.1.0, SVG Export Plug-In . SVG Version: 6.00 Build 0)  -->
<svg version="1.1" id="Layer_1" xmlns="http://www.w3.org/2000/svg" xmlns:xlink="http://www.w3.org/1999/xlink" x="0px" y="0px"
	 viewBox="0 0 56.7 56.7" style="enable-background:new 0 0 56.7 56.7;" xml:space="preserve">
<style type="text/css">
	.st0{fill:#FFFFFF;}
</style>
<path class="st0" d="M28.3,3.4c-15,0-27.2,9.6-27.2,21.5c0,7.7,5.2,14.5,12.9,18.3c-0.6,2.1-2.1,7.7-2.4,8.9
	c-0.4,1.5,0.5,1.5,1.1,1.1c0.5-0.3,7.4-5.1,10.5-7.1c1.6,0.2,3.3,0.4,5,0.4c15,0,27.2-9.6,27.2-21.5C55.5,13,43.4,3.4,28.3,3.4z
	 M15.1,30.4c0,1.3-2.9,1.3-2.9,0c0-1.8,0-9.5,0-9.5H9.4c-1.6,0-1.6-2.7,0-2.7c0,0,6.5,0.1,8.5,0.1c1.7,0,1.7,2.7,0,2.7
	c-1.8,0-2.8,0-2.8,0L15.1,30.4z M25.8,30.7c-0.7-1.8-0.5-1.9-0.5-1.9h-5.1l-0.6,2c-0.6,1.4-3.2,0.3-2.6-1.1c0.8-1.9,3.3-9.1,4-10.6
	c0.3-0.6,0.9-0.8,1.6-0.8c0.8,0,1.6,0.4,1.8,0.8c0.5,1.1,3.2,8.5,4,10.6C29,31.2,26.3,32.2,25.8,30.7z M36.2,31.4
	c-1.3,0-4.3,0-5.6,0c-1.3,0-1.1-1.6-1.1-1.6s0-7.8,0-10.3c0-0.9,0.8-1.3,1.5-1.3c0.8,0,1.5,0.4,1.5,1.3c0,1.8,0,9,0,9s2.4,0,3.7,0
	C37.5,28.6,37.5,31.4,36.2,31.4z M45.2,31.2l-3.7-5l-0.8,0.7c0,0,0,2.5,0,3.8c0,1.1-2.9,1.1-2.9,0c0-0.7,0.1-10.4,0-11.4
	c0-0.6,0.7-0.9,1.5-0.9c0.7,0,1.4,0.3,1.4,0.8c0,1.4,0,4.1,0,4.1s4.2-4.2,4.8-4.8c0.6-0.6,2.5,1.3,1.9,1.9c-1,1-3.7,3.9-3.7,3.9
	l3.9,5.2C48.3,30.4,45.9,32.2,45.2,31.2z"/>
<polygon class="st0" points="21.1,26.3 24.3,26.3 22.8,21.4 "/>
</svg>
